<svg id="Layer_1" data-name="Layer 1" xmlns="http://www.w3.org/2000/svg" viewBox="0 0 635.17 505"><defs><style>.cls-1{font-size:64.04px;fill:#231f20;font-family:NotoSansLao-Bold, Noto Sans Lao;font-weight:700;}.cls-2,.cls-4{fill:#fdb81a;stroke-miterlimit:10;}.cls-2{stroke:#231f20;stroke-width:9px;}.cls-3{fill:#010101;}.cls-4{stroke:#fdb81a;stroke-width:0.25px;}</style></defs><text class="cls-1" transform="translate(170.59 393.83)">CoinHive</text><circle class="cls-2" cx="312.14" cy="197.89" r="111.51"/><polygon class="cls-3" points="285.08 216.67 271.99 224.23 258.91 231.78 258.91 262 285.08 277.12 311.25 262 311.25 231.78 298.17 224.23 285.08 216.67"/><polygon class="cls-3" points="282.96 213 282.96 182.78 269.87 175.22 256.79 167.67 243.7 175.22 230.61 182.78 230.61 213 256.79 228.11 269.87 220.55 282.96 213"/><polygon class="cls-3" points="285.08 179.1 298.17 171.55 311.25 163.99 311.25 133.77 285.08 118.66 258.91 133.77 258.91 163.99 271.99 171.55 285.08 179.1"/><polygon class="cls-3" points="315.5 163.99 339.4 177.79 341.67 179.1 354.75 171.55 367.84 163.99 367.84 133.77 341.67 118.66 315.5 133.77 315.5 163.99"/><polygon class="cls-3" points="341.67 216.67 339.4 217.98 315.5 231.78 315.5 262 341.67 277.12 367.84 262 367.84 231.78 354.75 224.23 341.67 216.67"/><polygon class="cls-3" points="369.96 167.67 356.88 175.22 343.79 182.78 343.79 213 356.88 220.55 369.96 228.11 396.14 213 396.14 182.78 383.05 175.22 369.96 167.67"/><polygon class="cls-3" points="339.55 182.78 313.38 167.67 300.29 175.22 287.2 182.78 287.2 213 300.29 220.55 313.38 228.11 339.55 213 339.55 182.78"/><path class="cls-4" d="M311,217.92v-5a14.37,14.37,0,0,1-7.53-2.16l1.18-3.35a12.69,12.69,0,0,0,7,2.17c3.54,0,5.9-2,5.9-4.77s-1.92-4.43-5.56-5.9c-5-2-8.16-4.23-8.16-8.51,0-4.08,3-7.18,7.42-8v-4.92h3.1v4.77a12.13,12.13,0,0,1,6.34,1.78l-1.13,3.24a11.83,11.83,0,0,0-6.24-1.72c-3.79,0-5.21,2.26-5.21,4.23,0,2.56,1.82,3.83,6.09,5.65,5.07,2.07,7.63,4.58,7.63,8.95,0,3.89-2.71,7.53-7.82,8.36v5.12Z"/></svg>