<svg id="Layer_1" data-name="Layer 1" xmlns="http://www.w3.org/2000/svg" viewBox="0 0 284.29 340.83"><defs><style>.cls-1{font-size:64.04px;fill:#231f20;font-family:NotoSansLao-Bold, Noto Sans Lao;font-weight:700;}.cls-2,.cls-4{fill:#fdb81a;stroke-miterlimit:10;}.cls-2{stroke:#231f20;stroke-width:9px;}.cls-3{fill:#010101;}.cls-4{stroke:#fdb81a;stroke-width:0.25px;}</style></defs><text class="cls-1" transform="translate(0 311.95)">CoinHive</text><circle class="cls-2" cx="141.55" cy="116.01" r="111.51"/><polygon class="cls-3" points="114.49 134.79 101.4 142.35 88.31 149.91 88.31 180.13 114.49 195.24 140.66 180.13 140.66 149.91 127.57 142.35 114.49 134.79"/><polygon class="cls-3" points="112.37 131.12 112.37 100.9 99.28 93.34 86.19 85.79 73.11 93.34 60.02 100.9 60.02 131.12 86.19 146.23 99.28 138.68 112.37 131.12"/><polygon class="cls-3" points="114.49 97.22 127.57 89.67 140.66 82.11 140.66 51.89 114.49 36.78 88.31 51.89 88.31 82.11 101.4 89.67 114.49 97.22"/><polygon class="cls-3" points="144.9 82.11 168.81 95.92 171.08 97.22 184.16 89.67 197.25 82.11 197.25 51.89 171.08 36.78 144.9 51.89 144.9 82.11"/><polygon class="cls-3" points="171.08 134.79 168.81 136.1 144.9 149.91 144.9 180.13 171.08 195.24 197.25 180.13 197.25 149.91 184.16 142.35 171.08 134.79"/><polygon class="cls-3" points="199.37 85.79 186.28 93.34 173.2 100.9 173.2 131.12 186.28 138.68 199.37 146.23 225.54 131.12 225.54 100.9 212.46 93.34 199.37 85.79"/><polygon class="cls-3" points="168.95 100.9 142.78 85.79 129.7 93.34 116.61 100.9 116.61 131.12 129.7 138.68 142.78 146.23 168.95 131.12 168.95 100.9"/><path class="cls-4" d="M142.07,141v-5a14.31,14.31,0,0,1-7.52-2.16l1.18-3.34a12.76,12.76,0,0,0,7,2.16c3.54,0,5.9-2,5.9-4.77s-1.91-4.43-5.55-5.9c-5-2-8.17-4.23-8.17-8.51,0-4.08,2.95-7.18,7.43-8v-4.91h3.1v4.77a12.17,12.17,0,0,1,6.34,1.77l-1.13,3.24a11.87,11.87,0,0,0-6.25-1.72c-3.78,0-5.21,2.26-5.21,4.23,0,2.56,1.82,3.84,6.1,5.66,5.06,2.06,7.62,4.57,7.62,8.95,0,3.88-2.7,7.52-7.82,8.36V141Z" transform="translate(-1.7 -4.92)"/></svg>