<svg id="Layer_1" data-name="Layer 1" xmlns="http://www.w3.org/2000/svg" viewBox="0 0 232.02 232.02"><defs><style>.cls-1,.cls-3{fill:#fdb81a;stroke-miterlimit:10;}.cls-1{stroke:#231f20;stroke-width:9px;}.cls-2{fill:#010101;}.cls-3{stroke:#fdb81a;stroke-width:0.25px;}</style></defs><circle class="cls-1" cx="116.01" cy="116.01" r="111.51"/><polygon class="cls-2" points="88.94 134.79 75.86 142.35 62.77 149.91 62.77 180.13 88.94 195.24 115.12 180.13 115.12 149.91 102.03 142.35 88.94 134.79"/><polygon class="cls-2" points="86.82 131.12 86.82 100.9 73.74 93.34 60.65 85.79 47.56 93.34 34.48 100.9 34.48 131.12 60.65 146.23 73.74 138.68 86.82 131.12"/><polygon class="cls-2" points="88.94 97.22 102.03 89.67 115.12 82.11 115.12 51.89 88.94 36.78 62.77 51.89 62.77 82.11 75.86 89.67 88.94 97.22"/><polygon class="cls-2" points="119.36 82.11 143.27 95.92 145.53 97.22 158.62 89.67 171.71 82.11 171.71 51.89 145.53 36.78 119.36 51.89 119.36 82.11"/><polygon class="cls-2" points="145.53 134.79 143.27 136.1 119.36 149.91 119.36 180.13 145.53 195.24 171.71 180.13 171.71 149.91 158.62 142.35 145.53 134.79"/><polygon class="cls-2" points="173.83 85.79 160.74 93.34 147.66 100.9 147.66 131.12 160.74 138.68 173.83 146.23 200 131.12 200 100.9 186.91 93.34 173.83 85.79"/><polygon class="cls-2" points="143.41 100.9 117.24 85.79 104.15 93.34 91.07 100.9 91.07 131.12 104.15 138.68 117.24 146.23 143.41 131.12 143.41 100.9"/><path class="cls-3" d="M123.69,142v-5a14.4,14.4,0,0,1-7.52-2.16l1.18-3.35a12.68,12.68,0,0,0,7,2.16c3.54,0,5.9-2,5.9-4.77s-1.92-4.42-5.56-5.9c-5-2-8.16-4.23-8.16-8.5,0-4.08,3-7.18,7.43-8v-4.92h3.09v4.77a12.31,12.31,0,0,1,6.35,1.77l-1.13,3.25a11.9,11.9,0,0,0-6.25-1.72c-3.78,0-5.21,2.26-5.21,4.23,0,2.55,1.82,3.83,6.1,5.65,5.06,2.07,7.62,4.57,7.62,9,0,3.89-2.71,7.53-7.82,8.36V142Z" transform="translate(-8.86 -5.93)"/></svg>